<svg xmlns="http://www.w3.org/2000/svg" viewBox="0 0 900 300" role="img" aria-labelledby="title desc">
  <title id="title">Local AI Hub Splash</title>
  <desc id="desc">Splash image with logo and title for Local AI Hub.</desc>
  <defs>
    <linearGradient id="bg" x1="0" y1="0" x2="1" y2="1">
      <stop offset="0%" stop-color="#0f172a"/>
      <stop offset="100%" stop-color="#1e3a8a"/>
    </linearGradient>
    <linearGradient id="chip" x1="0" y1="0" x2="1" y2="1">
      <stop offset="0%" stop-color="#22d3ee"/>
      <stop offset="100%" stop-color="#2563eb"/>
    </linearGradient>
  </defs>
  <rect width="900" height="300" rx="40" fill="url(#bg)"/>
  <g transform="translate(90 75)">
    <rect width="150" height="150" rx="32" fill="#0b1220"/>
    <path d="M75 12 125 40v70l-50 28-50-28V40z" fill="url(#chip)"/>
    <path d="M39 49h20v13h-5v27h5v12h-20v-12h5V62h-5zm53 0h20v13h-5v27h5v12H92v-12h5V62h-5z" fill="#f8fafc"/>
    <rect x="58" y="67" width="34" height="14" rx="7" fill="#f8fafc"/>
  </g>
  <text x="280" y="130" fill="#e2e8f0" font-size="56" font-weight="700" font-family="-apple-system, BlinkMacSystemFont, 'Segoe UI', sans-serif">Local AI Hub</text>
  <text x="280" y="182" fill="#93c5fd" font-size="26" font-family="-apple-system, BlinkMacSystemFont, 'Segoe UI', sans-serif">Self-Hosted AI Workspace</text>
  <text x="280" y="225" fill="#94a3b8" font-size="20" font-family="-apple-system, BlinkMacSystemFont, 'Segoe UI', sans-serif">private models · workflows · team productivity</text>
</svg>
